# xmcd CD database file
# Copyright (C) 1997 Ti Kan
# 
# Track frame offsets:
#     150
#     28923
#     39909
#     60645
#     69151
#     82669
#     92032
#     109318
#     118213
#     142023
#     152268
#     164286
# 
# Disc length: 2581 seconds
# 
# Revision: 1
# Processed by: cddbd v1.4b41PL1 Copyright (c) Steve Scherf et al.
# Submitted via: DiscPlay 4.0.4
# 
DISCID=930a130c
DTITLE=Various Artist - Blues Legends - Disc 2
DYEAR=1900
DGENRE=
TTITLE0=Big Joe Turner: Stormy Monday
TTITLE1=Buddy Guy and Junior Wells: Buddy's Blues
TTITLE2=Ruth Brown:  Brown Sugar
TTITLE3=Big Joe Williams: Baby Please Don't Go
TTITLE4=Magic Sam: BIack Magic Blues
TTITLE5=Bo Diddley: Crackin'Up
TTITLE6=Muddy Waters: Rollin' And Tumblin'
TTITLE7=Percy Masyfield: Please Send Me Some One To Love
TTITLE8=Roy Brown: Let Me the Four Winds Blow
TTITLE9=Howlin'Wolf: Red Rooster
TTITLE10=James Cotton: Dealing With The Devil
TTITLE11=Big Joe Turner: How Long Blue
EXTD=
EXTT0=
EXTT1=
EXTT2=
EXTT3=
EXTT4=
EXTT5=
EXTT6=
EXTT7=
EXTT8=
EXTT9=
EXTT10=
EXTT11=
PLAYORDER=
